<svg xmlns="http://www.w3.org/2000/svg" viewBox="0 0 177.55547 57.03123"><title>logo</title><g id="Layer_1" data-name="Layer 1"><rect x="37.36147" y="40.61239" width="13.91451" height="7.57454" fill="#00e09b"/><path d="M28.80611,8.84429v10.556C27.03656,17.75565,24.9028,17.058,21.70162,17.119A10.34836,10.34836,0,0,0,11.599,25.34046a17.66216,17.66216,0,0,0-.33259,3.31436,23.10392,23.10392,0,0,0,.18056,3.13731,12.46764,12.46764,0,0,0,3.90156,7.92541,10.35866,10.35866,0,0,0,5.69717,2.4297c2.81179.341,6.03569-.23793,7.76038-1.53484h8.55536V8.84429Zm-.23325,21.21229c0,3.07155-1.91135,4.91486-4.454,4.91486-2.9612,0-4.59507-2.42672-4.59507-5.1327v-.46008c0-3.32357,1.937-4.81488,4.59507-4.80023,3.09034.017,4.454,2.47925,4.454,5.14009Z" fill="#00e09b"/><path d="M92.57269,38.00589c-1.06377.45122-2.31293.88557-3.45856,1.24888l-.46222-1.38943c1.18438-.2802,2.29647-.55582,3.55733-.95927Zm1.33944,6.967a12.86957,12.86957,0,0,1-4.29763,1.62884c-.18736-.40621-.44931-.91837-.67863-1.36228a11.332,11.332,0,0,0,4.33255-1.23641ZM91.924,36.84616c-.87541-.34518-1.73534-.73067-2.58759-1.11818l.49709-1.17034c.726.35314,1.76064.86889,2.58052,1.24724Zm5.59182-.4901c.3909.88012,1.25338,1.38405,3.43534,1.94623-.16714.2951-.4763.94063-.6197,1.23611a8.24523,8.24523,0,0,1-1.37228-.41385v5.25854H90.79788V39.073h2.545s-.35084-.76917-.48081-1.01279c1.57359-.34969,2.57234-.8639,2.90482-1.70414h-1.248a5.40323,5.40323,0,0,1-1.09711,1.02635c-.27654-.183-.71545-.504-1.07728-.73673a7.64279,7.64279,0,0,0,1.88327-2.22087l1.32852.26179a2.93553,2.93553,0,0,1-.34881.562h5.39247l.00142,1.02447c-.28641.42266-.54751.68778-.90529,1.22446l-1.1986-.56981c.2553-.23465.37229-.33317.61933-.57169Zm-.00887,3.56765H92.24618v.593h5.26076Zm0,1.47971H92.24618v.60581h5.26076Zm0,1.50539H92.24618v.62047h5.26076Zm1.3169-3.83582a4.75342,4.75342,0,0,1-2.19236-1.75251,4.00383,4.00383,0,0,1-2.668,1.75251Zm-2.41556,4.83816a9.075,9.075,0,0,0,4.2734,1.29727l-.67039,1.38924A9.43811,9.43811,0,0,1,95.58557,44.815Z"/><path d="M108.36571,40.33977a15.69624,15.69624,0,0,1,1.46569,2.34871l-.77928,1.29913c-.18259-.47268-.5521-1.39822-.68641-1.81655V46.5229h-1.44394V41.86827a9.67066,9.67066,0,0,1-1.85865,3.50034c-.10543-.35755-.38683-1.08356-.59409-1.63278a12.75972,12.75972,0,0,0,2.27-3.65687h-2.04627V38.701h2.229V34.47615h1.44394V38.701h1.86216v1.378h-1.86216Zm-2.78484-2.06737c-.2291-.89558-.41781-1.57245-.80026-2.75374l1.08718-.36347a24.91167,24.91167,0,0,1,.85722,2.56125Zm4.88926-2.73274a16.90573,16.90573,0,0,1-.78445,2.74953l-1.00181-.39236a18.85324,18.85324,0,0,0,.62387-2.71828Zm4.80189,7.05985v3.93623h-1.45884V42.93347l-3.70491.99-.198-1.353,3.90294-1.01571v-7.13H115.272v6.79512l1.38079-.41152.10835,1.35316Zm-2.42877-1.49064a15.94806,15.94806,0,0,0-2.36221-1.58423l.57248-1.11621a24.41761,24.41761,0,0,1,2.43822,1.42253Zm.18356-3.20732a22.22588,22.22588,0,0,0-2.2577-1.70341l.73092-.9427a21.48878,21.48878,0,0,1,2.2958,1.62711Z"/><path d="M132.24633,41.61842h-2.16358v3.77569c0,.63259-.19829.86181-.59409.97973a18.42951,18.42951,0,0,1-2.30761.11407c-.08966-.42444-.17243-.87289-.287-1.26015.72611.0275,1.25606.0275,1.46784.0275.21086-.01284.27687-.066.27687-.22553v-3.4113h-8.56464v-1.2199h2.06546s-.32474-.45045-.60231-.83905A5.687,5.687,0,0,0,125.02405,38.3H122.385V37.18534h3.09081a4.09537,4.09537,0,0,0,.10291-.74923h1.2666a7.88384,7.88384,0,0,1-.09007.78789h3.19512V38.3h-2.93064a9.25277,9.25277,0,0,0,3.85291,1.31423l-.72038.78428h2.09408Zm-10.08445-3.87971h-1.44394V35.25028h4.74636v-.90081h1.44394v.90081h4.70385v2.48842h-1.44728V36.45114h-8.00294Zm1.39619,7.51746v.58448h-1.33972v-3.762h4.9368v3.17752Zm0-2.02046v1.006h2.21762v-1.006Zm5.2487-2.83718a6.92349,6.92349,0,0,1-2.7596-1.40427,4.93048,4.93048,0,0,1-2.95357,1.40427Z"/><path d="M140.45195,37.42244a16.9883,16.9883,0,0,1-1.30042,2.36986V46.4954H137.731V41.437a13.90069,13.90069,0,0,1-1.48393,1.40245c-.2449-.39284-.6477-.985-.80519-1.23063a10.54121,10.54121,0,0,0,3.51318-4.18641h-3.0385v-1.378h3.53019a15.67914,15.67914,0,0,0,.54091-1.61964l1.42785.30254c-.14485.46207-.30346.855-.4749,1.3171H147.394v1.378Zm7.20606,5.7365h-3.23447V45.4702c0,.6601-.24976.86235-.75551.97507a18.26061,18.26061,0,0,1-2.34077.1033c-.08539-.41553-.19486-1.03352-.29074-1.381.76553.03851,1.42784.02567,1.65245.02567.22462-.01284.29063-.05317.29063-.23837V43.15894h-3.37843V41.781h3.37843V40.75073h.61938a6.78258,6.78258,0,0,0,.90227-.92138H140.488V38.44392h5.90784v1.46261c-.71237.58063-1.134.90518-1.97227,1.5161V41.781H147.658Z"/><path d="M83.319,44.9965c.33989,0,.32544-.15167.37779-1.81183.25741.11841,1.09387.42027,1.44394.55412-.11774,2.03935-.17526,2.636-1.182,2.636h-2.3049c-1.11117,0-1.63082-.37847-1.63082-1.59477v-2.129H78.71382c-.34107,1.47645-1.63717,2.88713-5.11453,3.8285-.166-.24-.65167-1.28432-.81057-1.4773,2.97462-.54857,4.266-1.55384,4.45085-2.3512h-2.054V41.27638H77.37V39.75992H78.814v1.51646h2.65688v3.28873c0,.37918.05234.43139.366.43139ZM78.257,36.99082c-.26144,1.81483-1.04377,3.25751-4.15513,3.91118-.19768-.36571-.52664-.95-.73933-1.26723,2.67782-.5485,3.3815-1.59134,3.53789-2.6477l-1.95321.00375v1.09575h-1.442V35.61583h4.64041V34.45218h1.44394v1.16365h4.91136V37.969h-1.444v-.97815H80.98938v1.76235c0,.17105.07574.37918.43618.37918l1.36056.00049c.33989,0,.44571-.12133.44571-.90745.21949.10008,1.07137.35684,1.41588.47449-.14384,1.29417-.43343,1.811-1.16471,1.811H81.25073a1.53932,1.53932,0,0,1-1.70529-1.74447V36.99082Z"/><path d="M67.93887,39.51327v-2.947h1.023v-1.378H62.69933v1.378h3.79523v2.947H65.15483v-3.0212H63.71591v3.0212h-1.063V40.9796h1.0499C63.63746,42.653,63.568,44.20553,62.32608,45.5c.29839.1857.9752.79737,1.27305.97945,1.41192-1.46425,1.47725-3.5388,1.54263-5.49983h1.35279v5.55613h1.44432V40.9796h1.46021V39.51327Z"/><rect x="57.53422" y="35.18826" width="5.30507" height="1.37799"/><path d="M59.52362,39.65363a11.50529,11.50529,0,0,0,1.02563-3.32579l-1.30448.01935a6.36224,6.36224,0,0,1-2.81951,4.30188c.312.43048.652.8975.94265,1.32178a6.57375,6.57375,0,0,0,.91475-.84631v4.603h1.364v-.86581h2.67943V39.65363Zm1.41071,4.0194H59.64848V40.862h1.28584Z"/><path d="M153.141,42.24076a8.2,8.2,0,0,1-1.399,4.32065c-.32584-.32981-.84308-.8776-1.102-1.15149a8.09937,8.09937,0,0,0,1.08592-4.52716V35.41713l1.41029.25347.0065,2.11793h3.55108v4.45224Zm.01284-3.19836v1.95218h2.096V39.0424Zm9.95376,1.13077h-1.46807v6.33506h-1.44394V40.17317h-1.40375c0,1.49584-.38635,4.625-2.2663,6.38823-.24751-.23117-.87347-.7468-1.18656-1.01881,1.84488-1.734,2.03679-4.35547,2.03679-6.31192V35.47235l.89846.22553a28.912,28.912,0,0,0,3.81534-1.2438l.83227,1.13838a21.89612,21.89612,0,0,1-4.13,1.32963v1.8731h4.31576Z"/><path d="M156.28406,34.51788c-1.09351.3565-2.54723.71276-4.18307,1.075l.64793,1.01775s2.89375-.53367,4.21545-.95933Z"/><path d="M77.35923,14.97109a5.88786,5.88786,0,0,0-6.044,5.99859v.19678c0,3.64263,2.89694,5.97665,6.47223,5.97665a6.677,6.677,0,0,0,4.809-1.876l-1.83819-1.876a4.20542,4.20542,0,0,1-2.81981,1.15638,2.75811,2.75811,0,0,1-2.92082-2.356h8.057c.02523-.45837.02523-.82864.02523-1.00314C83.09986,17.69766,81.2118,14.97109,77.35923,14.97109Zm-2.36685,5.16962c.20142-1.65761,1.0574-2.61755,2.36685-2.61755,1.33468,0,2.14011,1.00348,2.29107,2.61755Z"/><path d="M92.86867,14.97109a4.4085,4.4085,0,0,0-3.65107,1.83212V15.18914H85.64239V31.24175H89.2176V25.37648a4.56676,4.56676,0,0,0,3.65107,1.72343c2.69408,0,5.1362-1.89793,5.1362-5.88991v-.349C98.00487,16.869,95.53753,14.97109,92.86867,14.97109Zm1.56091,6.17343c0,1.985-1.13326,3.25042-2.61831,3.25042-1.48573,0-2.64413-1.2654-2.64413-3.25042v-.21838c0-1.985,1.1584-3.25042,2.64413-3.25042,1.48505,0,2.61831,1.2654,2.61831,3.25042Z"/><path d="M106.439,14.97109c-3.65048,0-6.36988,2.50886-6.36988,5.977v.24032c0,3.49007,2.69408,5.95471,6.34515,5.95471,3.65048,0,6.34456-2.50853,6.34456-5.97665v-.24032C112.75884,17.43608,110.09,14.97109,106.439,14.97109Zm2.79509,6.17343c0,1.89793-1.03217,3.3159-2.79509,3.3159-1.71187,0-2.84513-1.46184-2.84513-3.33784v-.1529c0-1.8976,1.03217-3.3159,2.82041-3.3159,1.71187,0,2.81981,1.43991,2.81981,3.33818Z"/><path d="M120.589,19.90106c-1.4351-.56705-2.44262-.91606-2.44262-1.527v-.04388c0-.458.45356-.829,1.30945-.829a6.73263,6.73263,0,0,1,3.07178,1.00382l1.43518-2.22534a8.8283,8.8283,0,0,0-4.45642-1.2654c-2.6189,0-4.63269,1.33122-4.63269,3.57782v.04354c0,1.985,1.636,2.814,3.55,3.53395,1.46041.54545,2.46735.829,2.46735,1.50539v.04354c0,.48-.42833.89446-1.43518.89446a6.85472,6.85472,0,0,1-3.60052-1.30894l-1.56091,2.18146a8.98377,8.98377,0,0,0,5.11089,1.61441c2.69408,0,4.759-1.22186,4.759-3.6433v-.04354C124.16434,21.55867,122.553,20.70844,120.589,19.90106Z"/><rect x="126.60578" y="11.13202" width="3.72625" height="2.81365"/><rect x="126.68096" y="15.18914" width="3.57529" height="11.6924"/><path d="M137.60826,12.20064h-3.57521v2.9885h-1.36v2.61755h1.36v6.15183c0,2.42111,1.51036,3.1198,3.57521,3.1198a5.821,5.821,0,0,0,2.64362-.61093v-2.465a3.89733,3.89733,0,0,1-1.5356.32673c-.75548,0-1.108-.32673-1.108-1.00314v-5.5193h2.66885V15.18914h-2.66885Z"/><path d="M147.62853,15.05817a10.87819,10.87819,0,0,0-4.60738.938l.98162,2.42178a8.63619,8.63619,0,0,1,3.0971-.65481c1.61137,0,2.54312.698,2.54312,2.05084v.34867a8.28709,8.28709,0,0,0-2.81981-.48c-2.76986,0-4.70847,1.15638-4.70847,3.73039v.1313c0,2.26854,1.78756,3.55555,4.00353,3.55555a4.38939,4.38939,0,0,0,3.49943-1.48378v1.2654h3.49952V19.792a4.476,4.476,0,0,0-1.38463-3.53428A6.18651,6.18651,0,0,0,147.62853,15.05817Zm2.06493,7.98429c0,1.069-1.00744,1.81051-2.39208,1.78857-1.03217-.02194-1.7371-.50191-1.7371-1.46151V23.326c0-1.069.83066-1.63635,2.14011-1.63635a5.45233,5.45233,0,0,1,1.98907.37095Z"/><path d="M159.638,17.26157V15.18914h-3.57529v11.6924H159.638V19.53012c0-.90578,1.30945-.90526,3.49952-.90526h.15155V14.993A3.52726,3.52726,0,0,0,159.638,17.26157Z"/><path d="M65.26618,16.68541a4.44378,4.44378,0,0,0-3.6736-2.00291c-2.71045,0-5.16734,2.224-5.16734,5.81633,0,2.80825.84425,4.42368,2.07218,5.55A4.33614,4.33614,0,0,0,61.363,27.271a4.53591,4.53591,0,0,0,3.9032-1.6269v1.23739H68.8635V10.42948H65.26618Zm.04962,4.45574c0,1.89895-1.16566,3.10832-2.659,3.10832-1.73921,0-2.69889-1.27418-2.69889-3.17312v-.20893a2.756,2.756,0,0,1,2.69889-3.04351c1.49332,0,2.659,1.62352,2.659,3.10832Z"/></g></svg>