<?xml version="1.0" encoding="utf-8"?>
<!-- Generator: Adobe Illustrator 21.1.0, SVG Export Plug-In . SVG Version: 6.00 Build 0)  -->
<svg version="1.1" id="Layer_1" xmlns="http://www.w3.org/2000/svg" xmlns:xlink="http://www.w3.org/1999/xlink" x="0px" y="0px"
	 viewBox="0 0 173.2 34.8" style="enable-background:new 0 0 173.2 34.8;" xml:space="preserve">
<style type="text/css">
	.st0{fill:#FFFFFF;}
</style>
<title>logo</title>
<g id="Layer_1_1_">
	<rect x="23" y="28.1" class="st0" width="12.3" height="6.7"/>
	<path class="st0" d="M15.5,0.1v9.3c-1.6-1.5-3.4-2.1-6.3-2c-4.3,0-8,3-8.9,7.3c-0.2,1-0.3,1.9-0.3,2.9c0,0.9,0,1.9,0.2,2.8
		c0.3,2.7,1.5,5.2,3.4,7c1.4,1.2,3.2,2,5,2.1c2.5,0.3,5.3-0.2,6.9-1.4H23v-28H15.5z M15.3,18.8c0,2.7-1.7,4.3-3.9,4.3
		c-2.6,0-4.1-2.1-4.1-4.5v-0.4c0-2.9,1.7-4.3,4.1-4.2c2.7,0,3.9,2.2,3.9,4.5L15.3,18.8z"/>
	<path class="st0" d="M65.9,10.8c-4.1-0.1-7.4,3.1-7.5,7.2c0,0.1,0,0.2,0,0.3v0.2c0,4.5,3.6,7.5,8.1,7.5c2.2,0.1,4.4-0.8,6-2.3
		l-2.3-2.3c-1,0.9-2.2,1.4-3.5,1.4c-1.8,0.1-3.4-1.2-3.6-2.9h10.1c0-0.6,0-1,0-1.3C73.1,14.2,70.7,10.8,65.9,10.8z M63,17.2
		c0.3-2.1,1.3-3.3,3-3.3c1.7,0,2.7,1.3,2.9,3.3H63z"/>
	<path class="st0" d="M85.3,10.8c-1.8,0-3.5,0.8-4.6,2.3v-2h-4.5v20h4.5v-7.3c1.1,1.4,2.8,2.2,4.6,2.2c3.4,0,6.4-2.4,6.4-7.4v-0.4
		C91.7,13.1,88.6,10.8,85.3,10.8z M87.2,18.5c0,2.5-1.4,4.1-3.3,4.1c-1.9,0-3.3-1.6-3.3-4.1v-0.3c0-2.5,1.4-4.1,3.3-4.1
		c1.9,0,3.3,1.6,3.3,4.1V18.5z"/>
	<path class="st0" d="M102.2,10.8c-4.6,0-8,3.1-8,7.5v0.3c0,4.4,3.4,7.4,7.9,7.4c4.6,0,7.9-3.1,7.9-7.5v-0.3
		C110.1,13.8,106.8,10.8,102.2,10.8z M105.7,18.5c0,2.4-1.3,4.1-3.5,4.1c-2.1,0-3.6-1.8-3.6-4.2v-0.2c0-2.4,1.3-4.1,3.5-4.1
		c2.1,0,3.5,1.8,3.5,4.2L105.7,18.5z"/>
	<path class="st0" d="M119.9,16.9c-1.8-0.7-3-1.1-3-1.9V15c0-0.6,0.6-1,1.6-1c1.4,0.1,2.7,0.5,3.8,1.3l1.8-2.8
		c-1.7-1-3.6-1.6-5.6-1.6c-3.3,0-5.8,1.7-5.8,4.5v0.1c0,2.5,2,3.5,4.4,4.4c1.8,0.7,3.1,1,3.1,1.9v0.1c0,0.6-0.5,1.1-1.8,1.1
		c-1.6-0.1-3.2-0.7-4.5-1.6l-1.9,2.7c1.9,1.3,4.1,2,6.4,2c3.4,0,5.9-1.5,5.9-4.5v-0.1C124.4,19,122.3,17.9,119.9,16.9z"/>
	<rect x="127.4" y="6" class="st0" width="4.7" height="3.5"/>
	<rect x="127.5" y="11" class="st0" width="4.5" height="14.6"/>
	<path class="st0" d="M141.1,7.3h-4.5V11H135v3.3h1.7V22c0,3,1.9,3.9,4.5,3.9c1.1,0,2.3-0.3,3.3-0.8V22c-0.6,0.3-1.3,0.4-1.9,0.4
		c-0.9,0-1.4-0.4-1.4-1.3v-6.9h3.3V11h-3.3V7.3z"/>
	<path class="st0" d="M153.6,10.9c-2,0-3.9,0.4-5.8,1.2l1.2,3c1.2-0.5,2.5-0.8,3.9-0.8c2,0,3.2,0.9,3.2,2.6v0.4
		c-1.1-0.4-2.3-0.6-3.5-0.6c-3.5,0-5.9,1.4-5.9,4.7v0.2c0,2.8,2.2,4.4,5,4.4c1.7,0.1,3.3-0.6,4.4-1.9v1.6h4.4v-8.9
		c0.1-1.7-0.5-3.3-1.7-4.4C157.3,11.3,155.5,10.7,153.6,10.9z M156.2,20.8c0,1.3-1.3,2.3-3,2.2c-1.3,0-2.2-0.6-2.2-1.8v-0.1
		c0-1.3,1-2,2.7-2c0.8,0,1.7,0.2,2.5,0.5V20.8z"/>
	<path class="st0" d="M168.6,13.6V11h-4.5v14.6h4.5v-9.2c0-1.1,1.6-1.1,4.4-1.1h0.2v-4.5C171.2,10.6,169.3,11.8,168.6,13.6z"/>
	<path class="st0" d="M50.8,12.9c-1-1.5-2.7-2.5-4.6-2.5c-3.4,0-6.5,2.8-6.5,7.3c0,3.5,1.1,5.5,2.6,6.9c1,0.9,2.2,1.5,3.6,1.5
		c2.5,0,4.1-1,4.9-2v1.5h4.5V5.1h-4.5V12.9z M50.9,18.5c0,2.4-1.5,3.9-3.3,3.9c-2.2,0-3.4-1.6-3.4-4v-0.3c0-2.4,1.5-3.8,3.4-3.8
		c1.9,0,3.3,2,3.3,3.9V18.5z"/>
</g>
</svg>
