<svg xmlns="http://www.w3.org/2000/svg" viewBox="0 0 197.82713 52.42299"><title>logo</title><g id="Layer_1" data-name="Layer 1"><rect x="35.37526" y="36.90946" width="12.28469" height="6.68733" fill="#fff"/><path d="M27.822,8.86239V18.182c-1.56228-1.452-3.44611-2.068-6.27233-2.01413a9.13625,9.13625,0,0,0-8.91926,7.25848,15.59338,15.59338,0,0,0-.29363,2.92614,20.39773,20.39773,0,0,0,.15941,2.76984,11.0073,11.0073,0,0,0,3.44457,6.9971,9.14534,9.14534,0,0,0,5.02985,2.1451c2.48244.30108,5.32873-.21006,6.8514-1.35506h7.55326V8.86239Zm-.20593,18.72768c0,2.71177-1.68747,4.33918-3.93228,4.33918-2.61435,0-4.05684-2.14248-4.05684-4.5315v-.40619c0-2.93428,1.71016-4.25091,4.05684-4.238,2.72836.015,3.93228,2.18886,3.93228,4.538Z" fill="#fff"/><path d="M78.26271,19.559a7.35014,7.35014,0,0,0-7.545,7.48837V27.293c0,4.54729,3.61641,7.461,8.07964,7.461a8.33532,8.33532,0,0,0,6.00329-2.34191l-2.29471-2.34191a5.24986,5.24986,0,0,1-3.52013,1.44357,3.4431,3.4431,0,0,1-3.64622-2.94108h10.058c.0315-.5722.0315-1.03443.0315-1.25228C85.42906,22.96275,83.07209,19.559,78.26271,19.559ZM75.308,26.01253c.25145-2.06929,1.32-3.26763,2.95467-3.26763,1.66615,0,2.67162,1.2527,2.86007,3.26763Z" fill="#fff"/><path d="M97.624,19.559a5.50338,5.50338,0,0,0-4.55783,2.28713V19.83122H88.603V39.87057h4.46313V32.54864A5.70094,5.70094,0,0,0,97.624,34.70009c3.36317,0,6.4118-2.36929,6.4118-7.35269v-.43568C104.03579,21.92831,100.95567,19.559,97.624,19.559Zm1.94857,7.70663c0,2.478-1.41471,4.05767-3.26858,4.05767-1.85471,0-3.30081-1.57967-3.30081-4.05767V26.993c0-2.478,1.4461-4.05767,3.30081-4.05767,1.85387,0,3.26858,1.57967,3.26858,4.05767Z" fill="#fff"/><path d="M114.56457,19.559c-4.55709,0-7.95186,3.132-7.95186,7.4614v.3c0,4.35684,3.36317,7.43359,7.921,7.43359,4.55709,0,7.92026-3.13153,7.92026-7.461v-.3C122.454,22.6362,119.1223,19.559,114.56457,19.559Zm3.48926,7.70663c0,2.36929-1.28851,4.13942-3.48926,4.13942-2.137,0-3.55173-1.8249-3.55173-4.16681v-.19088c0-2.36887,1.28851-4.13942,3.52087-4.13942,2.137,0,3.52013,1.79751,3.52013,4.16723Z" fill="#fff"/><path d="M132.22884,25.71337c-1.79151-.70788-3.04926-1.14356-3.04926-1.90622v-.05478c0-.57178.5662-1.03485,1.63466-1.03485a8.40471,8.40471,0,0,1,3.83467,1.25312l1.79161-2.778a11.02085,11.02085,0,0,0-5.56319-1.57967c-3.26931,0-5.78324,1.66183-5.78324,4.46639v.05436c0,2.478,2.04232,3.51286,4.43163,4.41162,1.82311.68091,3.08012,1.03485,3.08012,1.87926v.05436c0,.59917-.5347,1.1166-1.79161,1.1166a8.55712,8.55712,0,0,1-4.49473-1.634l-1.94857,2.72323a11.21493,11.21493,0,0,0,6.3802,2.01535c3.36317,0,5.94093-1.52531,5.94093-4.54814V30.0976C136.69207,27.78266,134.68051,26.72126,132.22884,25.71337Z" fill="#fff"/><rect x="139.73985" y="14.7665" width="4.65168" height="3.51244" fill="#fff"/><rect x="139.83371" y="19.83122" width="4.46323" height="14.59625" fill="#fff"/><path d="M153.47485,16.10052h-4.46313v3.7307H147.314v3.26763h1.69776v7.67967c0,3.0224,1.88547,3.89461,4.46313,3.89461a7.26673,7.26673,0,0,0,3.30018-.76266V30.83329a4.86525,4.86525,0,0,1-1.917.40787c-.9431,0-1.38321-.40787-1.38321-1.25228v-6.89h3.33168V19.83122h-3.33168Z" fill="#fff"/><path d="M165.9837,19.66773a13.57984,13.57984,0,0,0-5.75164,1.171l1.22541,3.02324a10.781,10.781,0,0,1,3.86627-.81743c2.01156,0,3.17472.87137,3.17472,2.56017v.43526a10.34523,10.34523,0,0,0-3.52013-.59917c-3.45777,0-5.87783,1.44357-5.87783,4.65685v.16391c0,2.83195,2.23151,4.43858,4.99783,4.43858a5.47952,5.47952,0,0,0,4.36853-1.85229v1.57967h4.36864v-8.8502a5.5877,5.5877,0,0,0-1.72851-4.412A7.723,7.723,0,0,0,165.9837,19.66773Zm2.57776,9.96722c0,1.33444-1.25765,2.26016-2.98616,2.23277-1.28851-.02739-2.16852-.62656-2.16852-1.82448v-.05436c0-1.33444,1.037-2.04274,2.67162-2.04274a6.80643,6.80643,0,0,1,2.48306.46307Z" fill="#fff"/><path d="M180.97571,22.41835V19.83122h-4.46323V34.42747h4.46323V25.2503c0-1.13074,1.63466-1.13008,4.36864-1.13008h.18919V19.58641A4.40327,4.40327,0,0,0,180.97571,22.41835Z" fill="#fff"/><path d="M63.16631,21.6991a5.54741,5.54741,0,0,0-4.586-2.50034c-3.38361,0-6.45067,2.77633-6.45067,7.26084,0,3.5057,1.05392,5.52231,2.58682,6.92838a5.413,5.413,0,0,0,3.57722,1.52574c2.47611.0257,4.14816-.95185,4.87258-2.03094v1.5447H67.657v-20.538H63.16631Zm.06194,5.56234c0,2.37056-1.45516,3.88028-3.31935,3.88028-2.17115,0-3.36918-1.59063-3.36918-3.96118v-.26082c0-2.36845,1.50256-3.79938,3.36918-3.79938,1.86419,0,3.31935,2.02673,3.31935,3.88028Z" fill="#fff"/></g></svg>