<svg xmlns="http://www.w3.org/2000/svg" viewBox="0 0 300 300"><title>icon</title><g id="Layer_1" data-name="Layer 1"><rect x="-1119.82566" y="-1180.77646" width="2691.37533" height="1815.1136" fill="#012819" stroke="#077a48" stroke-linecap="round" stroke-linejoin="round"/></g><g id="icon"><path d="M254.08962,150s-28.53276,37.18939-63.72971,37.18939S126.63021,150,126.63021,150s28.53276-37.18939,63.72971-37.18939S254.08962,150,254.08962,150Z" fill="#077a48" stroke="#077a48" stroke-linecap="round" stroke-linejoin="round" stroke-width="8"/><circle cx="190.35991" cy="150" r="37.18939" fill="#012819"/><circle cx="190.35991" cy="150" r="18.6858" fill="#077a48"/><path d="M173.36979,150s-28.53276,37.18939-63.72971,37.18939S45.91038,150,45.91038,150s28.53276-37.18939,63.72971-37.18939S173.36979,150,173.36979,150Z" fill="none" stroke="#012819" stroke-linejoin="round" stroke-width="26"/><path d="M173.36979,150s-28.53276,37.18939-63.72971,37.18939S45.91038,150,45.91038,150s28.53276-37.18939,63.72971-37.18939S173.36979,150,173.36979,150Z" fill="#012819" stroke="#00e09b" stroke-linejoin="round" stroke-width="8"/><circle cx="109.64009" cy="150" r="36.33121" fill="#00e09b"/><circle cx="109.64009" cy="150" r="18.6858" fill="#012819"/></g></svg>