<svg xmlns="http://www.w3.org/2000/svg" viewBox="0 0 300 300"><title>icon</title><g id="Layer_1" data-name="Layer 1"><rect x="-1119.82566" y="-788.46388" width="2691.37533" height="1815.1136" fill="#012819" stroke="#077a48" stroke-linecap="round" stroke-linejoin="round"/></g><g id="icon"><circle cx="150.89137" cy="150.00005" r="20.13825" fill="#f46464"/><ellipse cx="150" cy="150.00005" rx="43.54632" ry="90.87124" fill="none" stroke="#077a48" stroke-linejoin="round" stroke-width="2"/><ellipse cx="150" cy="150.00005" rx="90.87124" ry="43.54632" transform="translate(-62.13207 150.00001) rotate(-45)" fill="none" stroke="#077a48" stroke-linejoin="round" stroke-width="2"/><ellipse cx="150" cy="150.00005" rx="43.54632" ry="90.87124" transform="translate(-62.13207 150.00001) rotate(-45)" fill="none" stroke="#077a48" stroke-linejoin="round" stroke-width="2"/><ellipse cx="150" cy="150.00005" rx="90.87124" ry="43.54632" fill="none" stroke="#077a48" stroke-linejoin="round" stroke-width="2"/><path d="M240.87116,150.00005c0-10.888-8.35773-20.83411-22.14122-28.4689,4.34779-15.145,3.22472-28.08789-4.47414-35.78676s-20.64189-8.8221-35.78692-4.4743C170.83409,67.48661,160.88777,59.12871,150,59.12871s-20.83411,8.3579-28.4689,22.14139c-15.145-4.34779-28.08789-3.22456-35.78676,4.4743-7.6987,7.69886-8.82194,20.64156-4.47414,35.78659C67.48654,129.16578,59.1288,139.1121,59.1288,150.00005c0,10.88779,8.35773,20.83411,22.14139,28.4689-4.34779,15.145-3.22456,28.08789,4.47414,35.78676,7.69886,7.69886,20.64172,8.8221,35.78676,4.4743,7.63479,13.78349,17.58111,22.14122,28.4689,22.14122s20.83411-8.35773,28.4689-22.14122c15.145,4.34779,28.08806,3.22456,35.78692-4.4743s8.82194-20.64189,4.47414-35.78692C232.51343,170.834,240.87116,160.88784,240.87116,150.00005Z" fill="none" stroke="#00e09b" stroke-linejoin="round" stroke-width="8"/></g></svg>