<svg xmlns="http://www.w3.org/2000/svg" viewBox="0 0 300 300"><title>icon</title><g id="Layer_1" data-name="Layer 1"><rect x="-1483.52457" y="-788.46388" width="2691.37533" height="1815.1136" fill="#012819" stroke="#077a48" stroke-linecap="round" stroke-linejoin="round"/></g><g id="icon"><path d="M72.06805,234.04986l29.2241-12.12647v-7.05718h12.60312v-6.8061l22.59055-2.94863C144.2967,204.09193,150,198.99279,150,193.029c0,5.96378,5.70328,11.06292,13.51416,12.08247l22.59055,2.94863v6.8061h12.60312v7.05718l29.22407,12.12647" fill="#012819" stroke="#00e09b" stroke-linecap="round" stroke-linejoin="round" stroke-width="8"/><polyline points="240.108 161.09 198.708 161.09 186.105 161.09 186.105 165.312 170.666 115.409 169.19 115.409 167.639 109.931 150 109.931 132.361 109.931 130.81 115.409 129.334 115.409 113.895 165.312 113.895 161.09 101.292 161.09 59.892 161.09" fill="#012819" stroke="#00e09b" stroke-linecap="round" stroke-linejoin="round" stroke-width="8"/><line x1="150" y1="197.07742" x2="150" y2="109.93094" fill="#012819" stroke="#00e09b" stroke-linejoin="round" stroke-width="2"/><circle cx="150" cy="70.54455" r="21.63297" fill="#f46464"/></g></svg>