<svg xmlns="http://www.w3.org/2000/svg" viewBox="0 0 300 300"><title>icon</title><g id="Layer_1" data-name="Layer 1"><rect x="-1483.52457" y="-408.70292" width="2691.37533" height="1815.1136" fill="#012819" stroke="#077a48" stroke-linecap="round" stroke-linejoin="round"/></g><g id="icon"><path d="M197.38422,231.97645s37.97986-48.1582,37.97986-85.85321a68.27532,68.27532,0,0,0-68.26942-68.26942H138.57435a55.63843,55.63843,0,0,0-55.63847,55.63837v26.64354l-30.11207.83873,30.11207,35.0053v9.93011H120.8604L100.587,231.97645" fill="none" stroke="#00e09b" stroke-linecap="round" stroke-linejoin="round" stroke-width="8"/><path d="M242.5033,114.5116c-.35173-28.62732-24.29889-51.37307-52.92837-51.37307H122.95606c-23.77521,0-43.68518,19.457-43.23045,43.22783a42.40122,42.40122,0,0,0,42.39309,41.574h20.29542c8.28015,0,9.73666,7.60643,25.12164,13.92667l.02411.00787a51.76867,51.76867,0,0,0,11.25754,3.993c.58676,8.13934-.06272,16.59812-4.04091,21.64872-5.15752,6.54782-13.78831,10.88484-20.617,13.48507a3.36465,3.36465,0,0,0,.47684,6.43764c12.10249,2.50345,32.08848,2.98683,47.47918-14.69608,8.46881-9.73009,11.54247-20.9008,12.01606-31.24255A52.00925,52.00925,0,0,0,242.5033,114.5116Z" fill="#012819"/><path d="M230.17227,111.504c-.29844-24.29016-20.6175-43.58984-44.9095-43.58984H128.73694c-20.17317,0-37.06669,16.50916-36.68086,36.67864a35.97726,35.97726,0,0,0,35.97036,35.27537H145.247c7.02567,0,8.26151,6.454,21.3156,11.81673l.02045.00667a43.9255,43.9255,0,0,0,9.552,3.388c.49786,6.9062-.05322,14.08344-3.4287,18.36885-4.37614,5.5558-11.69932,9.23574-17.49348,11.442a2.85489,2.85489,0,0,0,.4046,5.46231c10.26891,2.12417,27.22694,2.53431,40.28589-12.46957,7.18575-8.25594,9.79374-17.73424,10.19558-26.50917A44.12963,44.12963,0,0,0,230.17227,111.504Z" fill="#012819" stroke="#00e09b" stroke-linecap="round" stroke-linejoin="round" stroke-width="8"/><rect x="121.55145" y="94.44311" width="17.23345" height="17.23345" rx="8.37042" ry="8.37042" fill="#f46464"/><rect x="151.49592" y="94.44311" width="17.23345" height="17.23345" rx="8.37042" ry="8.37042" fill="#f46464"/><rect x="181.44038" y="94.44311" width="17.23345" height="17.23345" rx="8.37042" ry="8.37042" fill="#f46464"/></g></svg>