<svg xmlns="http://www.w3.org/2000/svg" viewBox="0 0 300 300"><title>icon</title><g id="Layer_1" data-name="Layer 1"><rect x="-747.5174" y="-1180.77646" width="2691.37533" height="1815.1136" fill="#012819" stroke="#077a48" stroke-linecap="round" stroke-linejoin="round"/></g><g id="icon"><path d="M216.25713,110.76771l-35.91691,23.37238L168.90231,116.5784l-.00647.00415a23.62339,23.62339,0,0,0-32.199-7.22857l-16.26892,8.33849a21.80367,21.80367,0,0,0-9.45866,29.34858l1.10894,2.405a26.42338,26.42338,0,0,0,10.93965,33.79143l-17.49663-8.944L94.325,196.19618,74.61085,186.12732a9.3822,9.3822,0,0,0-12.62424,4.08362l-4.004,7.83278,28.05056,14.339.0144.00647a21.80368,21.80368,0,0,0,29.33845-9.49l9.53495-18.65293,18.04848,9.22613.0083.00061,7.20025,3.68166-9.55057,18.68345L132.353,232.02484l28.05056,14.339,4.004-7.8329a9.382,9.382,0,0,0-4.08349-12.62424l-.28245-.1444,9.54972-18.68137a21.80383,21.80383,0,0,0-9.49015-29.33845l-.00464.00928c-.12121-.06494-.23888-.13378-.36179-.19664l-6.75216-3.45328,12.35082-24.16115a21.79575,21.79575,0,0,0,26.91843,2.48886h.00012l.05334-.04175,17.58073-11.45024A21.80378,21.80378,0,0,0,216.25713,110.76771Z" fill="#077a48" stroke="#077a48" stroke-linejoin="round" stroke-width="2"/><circle cx="173.61882" cy="81.35884" r="23.83829" fill="#077a48" stroke="#077a48" stroke-linejoin="round" stroke-width="2"/><path d="M231.25623,110.76771l-35.91691,23.37238L183.90141,116.5784l-.00647.00415a23.62339,23.62339,0,0,0-32.199-7.22857L135.427,117.69247a21.80367,21.80367,0,0,0-9.45866,29.34858l1.10894,2.405A26.42338,26.42338,0,0,0,138.017,183.23748l-17.49663-8.944L109.3241,196.19618,89.61,186.12732a9.3822,9.3822,0,0,0-12.62424,4.08362l-4.004,7.83278,28.05056,14.339.0144.00647a21.80368,21.80368,0,0,0,29.33845-9.49L139.92,184.24621l18.04848,9.22613.0083.00061,7.20025,3.68166-9.55057,18.68345-8.27441,16.18677,28.05056,14.339,4.004-7.8329a9.382,9.382,0,0,0-4.08349-12.62424l-.28245-.1444,9.54972-18.68137a21.80383,21.80383,0,0,0-9.49015-29.33845l-.00464.00928c-.12121-.06494-.23888-.13378-.36179-.19664l-6.75216-3.45328,12.35082-24.16115a21.79575,21.79575,0,0,0,26.91843,2.48886h.00012l.05334-.04175,17.58073-11.45024A21.80378,21.80378,0,0,0,231.25623,110.76771Z" fill="#012819" stroke="#00e09b" stroke-linecap="round" stroke-linejoin="round" stroke-width="8"/><circle cx="188.61792" cy="81.35884" r="23.83829" fill="#012819" stroke="#00e09b" stroke-linecap="round" stroke-linejoin="round" stroke-width="8"/></g></svg>