<svg xmlns="http://www.w3.org/2000/svg" viewBox="0 0 300 300"><title>icon</title><g id="Layer_1" data-name="Layer 1"><rect x="-747.5174" y="-788.46388" width="2691.37533" height="1815.1136" fill="#012819" stroke="#077a48" stroke-linecap="round" stroke-linejoin="round"/></g><g id="icon"><path d="M213.00392,67.53975H90.99609v21.184h9.96643v.14738c0,37.7891,21.96653,43.58517,32.43067,48.82407,10.46414,5.23865,12.14593,8.46142,12.14593,12.37854s-1.68179,7.13989-12.14593,12.37854-32.43067,11.03484-32.43067,48.82407H90.99609v21.18385H213.00392V211.27634H203.0375c0-37.78923-21.9664-43.5853-32.43067-48.82407s-12.14593-8.46142-12.14593-12.37854,1.68179-7.13989,12.14593-12.37854c10.46427-5.23891,32.43067-11.035,32.43067-48.82407l0-.14738h9.96645Z" fill="none" stroke="#00e09b" stroke-linejoin="round" stroke-width="8"/><path d="M152,102.99182c-17.68321,0-29.8503,2.37248-28.42015,9.18s10.13571,11.28265,17.54975,14.09988S152,133.09264,152,135.02035c0-1.92772,3.45646-5.9313,10.87039-8.74864s16.11949-7.29224,17.54975-14.09988S169.68322,102.99182,152,102.99182Z" fill="#077a48" stroke="#077a48" stroke-linecap="round" stroke-linejoin="round" stroke-width="2"/><circle cx="161.70243" cy="99.8769" r="16.12218" fill="#f46464"/><path d="M152,174.3211c-8.30424,0-40.83162,36.95524-40.83162,36.95524h81.66323S160.30425,174.3211,152,174.3211Z" fill="#077a48" stroke="#077a48" stroke-linecap="round" stroke-linejoin="round" stroke-width="2"/><line x1="152.00001" y1="165.41385" x2="152.00001" y2="173.98797" fill="#077a48" stroke="#077a48" stroke-linecap="round" stroke-linejoin="round" stroke-width="4"/></g></svg>