<svg xmlns="http://www.w3.org/2000/svg" viewBox="0 0 300 300"><title>icon</title><g id="Layer_1" data-name="Layer 1"><rect x="-747.5174" y="-408.70292" width="2691.37533" height="1815.1136" fill="#012819" stroke="#077a48" stroke-linecap="round" stroke-linejoin="round"/></g><g id="icon"><path d="M219.21107,85.11072c-21.54788-16.55727-51.10589-11.685-67.23,10.61293-8.77469-12.085-22.22327-19.96174-37.38678-20.41431-.40975-.01317-.81927-.03172-1.22957-.03378-.04937-.00018-.09785-.004-.14722-.004-.21271,0-.4222.0145-.63436.0174-.57554.007-1.15107.01855-1.72683.04749-.22439.01148-.44677.03076-.67038.0455-.59855.03891-1.19677.08562-1.79466.14834-.21694.0229-.4321.0513-.64814.07722-.594.071-1.1871.15112-1.77965.2458-.21672.03468-.43221.07323-.64792.111q-.87331.15254-1.74329.33831c-.21794.04695-.4351.09632-.652.14635q-.8553.19713-1.70581.42786-.32557.08837-.64926.18109-.83762.24064-1.66923.51518c-.2166.07124-.43265.14272-.64792.2171q-.81593.28188-1.62509.59759c-.21794.08459-.43588.16882-.65237.25656-.52528.21293-1.04755.43838-1.56816.67192-.2235.1003-.44722.19994-.66916.30369-.50193.23469-1.00052.4817-1.49755.73578-.23195.11861-.4639.2365-.694.35886-.47757.25414-.95137.52019-1.4236.79252-.23918.13789-.47835.27541-.71508.41741-.457.27408-.91012.55941-1.36156.85089-.23829.15384-.47613.30762-.71186.46563-.451.30242-.89811.61584-1.3431.93591-.21527.15511-.43021.31028-.643.46889-.21171.1574-.42754.30339-.63769.4649-.25363.19493-.49359.40285-.74288.602q-.26286.21046-.52305.42387-.77023.63237-1.51145,1.29084-.11659.10387-.23217.20883A52.87479,52.87479,0,0,0,68.76551,105.567c-.07828.17553-.14989.35487-.22639.53143-.24618.57107-.48936,1.14322-.71642,1.72233-.14566.36961-.27965.74557-.41775,1.11942-.14622.39759-.296.79361-.43343,1.19458-.1768.514-.33936,1.03506-.502,1.55634-.08517.2742-.17491.54672-.256.82219-.17624.59657-.33725,1.2-.49448,1.80547-.05582.21523-.11531.42919-.16857.64515-.15411.62315-.29333,1.25241-.4272,1.88426-.04514.21372-.09318.42659-.1361.64092-.12109.60629-.22861,1.2176-.33069,1.83139-.04292.25753-.08751.51451-.127.77264-.0854.55977-.15945,1.12328-.22872,1.68873-.04047.32877-.08039.65735-.11531.98691-.05248.49916-.097,1.00062-.13677,1.50377q-.04887.61288-.08584,1.22679-.03819.66074-.06171,1.3254-.02552.70959-.033,1.41984c-.00267.22689-.01579.451-.01579.67856,0,.183.011.36321.01268.54581.00445.48079.01723.96141.03358,1.44238.01434.42738.02991.85415.05337,1.27893.02357.41934.05537.83814.088,1.25724.03792.49385.07728.98685.12754,1.47682.03258.31505.07261.62938.11041.94406.07083.59427.14511,1.187.23362,1.775.02735.18073.05971.36079.089.54134.11575.72279.24084,1.44172.38295,2.1543.00523.0261.01134.052.01657.07813a54.18484,54.18484,0,0,0,19.32613,31.997c5.63226,4.92619,12.89806,10.35,22.52616,17.60937,16.60279,12.518,37.82788,34.95064,41.34848,36.08389a12.24221,12.24221,0,0,0,3.4203.60472c.11275.00447.22394.01577.33736.01637.11342-.0006.22483-.0119.33736-.01637a12.24226,12.24226,0,0,0,3.42041-.60472c3.52048-1.13325,24.74568-23.56591,41.34837-36.08389,17.9976-13.56972,27.79894-20.74338,33.94658-30.19358C246.73725,135.65529,241.45413,102.20244,219.21107,85.11072Z" fill="none" stroke="#00e09b" stroke-linecap="round" stroke-linejoin="round" stroke-width="8"/><path d="M119.851,205.20137c-15.13356,0-16.80271-24.4055-18.56951-50.24474-.65886-9.63691-1.28147-18.74015-2.561-25.87791-1.71556-9.5673-3.80333-10.57759-3.82412-10.58629-4.498.0058-8.3274,14.73959-10.61529,23.54313-3.6791,14.15565-7.1542,27.52725-17.34991,27.52725H45.95832a4.94993,4.94993,0,0,1-4.94993-4.94993h0a4.94993,4.94993,0,0,1,4.94993-4.94993h20.9728c.02707-.00387,1.36075-.50369,3.26145-5.123a125.77962,125.77962,0,0,0,4.50715-14.99482c3.95415-15.21428,8.04268-30.94676,20.19709-30.94676,13.13763,0,14.58539,21.17064,16.26179,45.68346.74732,10.9353,1.52075,22.24281,3.34314,30.48851,1.71653,7.76424,3.88841,10.53118,5.34922,10.53118.90781,0,2.43968-2.00608,3.81493-6.48906,1.71508-5.58995,2.77129-13.4325,3.79269-21.01692,2.38989-17.74146,4.64685-34.49873,16.40536-34.49873,11.78655,0,13.97535,15.76632,15.9065,29.67641.79953,5.7601,2.27339,16.37539,4.32829,18.26449,1.6532-.07734,2.51461-1.11277,4.98136-5.7688,3.33541-6.29377,8.37574-15.806,23.91-15.806h62.74051a4.94993,4.94993,0,0,1,4.94993,4.94993h0a4.94993,4.94993,0,0,1-4.94993,4.94993H192.99012c-9.576,0-12.0413,4.65217-15.16256,10.54182-2.60548,4.918-5.849,11.03778-13.94731,11.03778-10.19426,0-12.00214-13.02162-13.91589-26.808-.87784-6.32567-2.93419-21.13777-6.10041-21.13777-.20931,0-1.57586,1.019-3.02458,5.86161-1.57828,5.27574-2.5905,12.79056-3.56937,20.05884C134.77037,187.67357,132.41,205.20137,119.851,205.20137Z" fill="none" stroke="#012819" stroke-miterlimit="10" stroke-width="12"/><path d="M119.851,205.20137c-15.13356,0-16.80271-24.4055-18.56951-50.24474-.65886-9.63691-1.28147-18.74015-2.561-25.87791-1.71556-9.5673-3.80333-10.57759-3.82412-10.58629-4.498.0058-8.3274,14.73959-10.61529,23.54313-3.6791,14.15565-7.1542,27.52725-17.34991,27.52725H45.95832a4.94993,4.94993,0,0,1-4.94993-4.94993h0a4.94993,4.94993,0,0,1,4.94993-4.94993h20.9728c.02707-.00387,1.36075-.50369,3.26145-5.123a125.77962,125.77962,0,0,0,4.50715-14.99482c3.95415-15.21428,8.04268-30.94676,20.19709-30.94676,13.13763,0,14.58539,21.17064,16.26179,45.68346.74732,10.9353,1.52075,22.24281,3.34314,30.48851,1.71653,7.76424,3.88841,10.53118,5.34922,10.53118.90781,0,2.43968-2.00608,3.81493-6.48906,1.71508-5.58995,2.77129-13.4325,3.79269-21.01692,2.38989-17.74146,4.64685-34.49873,16.40536-34.49873,11.78655,0,13.97535,15.76632,15.9065,29.67641.79953,5.7601,2.27339,16.37539,4.32829,18.26449,1.6532-.07734,2.51461-1.11277,4.98136-5.7688,3.33541-6.29377,8.37574-15.806,23.91-15.806h62.74051a4.94993,4.94993,0,0,1,4.94993,4.94993h0a4.94993,4.94993,0,0,1-4.94993,4.94993H192.99012c-9.576,0-12.0413,4.65217-15.16256,10.54182-2.60548,4.918-5.849,11.03778-13.94731,11.03778-10.19426,0-12.00214-13.02162-13.91589-26.808-.87784-6.32567-2.93419-21.13777-6.10041-21.13777-.20931,0-1.57586,1.019-3.02458,5.86161-1.57828,5.27574-2.5905,12.79056-3.56937,20.05884C134.77037,187.67357,132.41,205.20137,119.851,205.20137Z" fill="#f46464"/></g></svg>