<svg xmlns="http://www.w3.org/2000/svg" viewBox="0 0 300 300"><title>icon</title><g id="Layer_1" data-name="Layer 1"><rect x="-1854.79658" y="-408.70292" width="2691.37533" height="1815.1136" fill="#012819" stroke="#077a48" stroke-linecap="round" stroke-linejoin="round"/></g><g id="icon"><path d="M239.18787,105.35972,237.7607,97.266a4.13168,4.13168,0,0,0-4.7864-3.35147l-6.70358,1.182a4.17338,4.17338,0,0,1-4.41452-2.228q-.75648-1.44914-1.63407-2.82137a4.17525,4.17525,0,0,1,.2712-4.94835l4.37853-5.2181a4.13164,4.13164,0,0,0-.50924-5.82089l-6.2959-5.2829a4.13163,4.13163,0,0,0-5.82083.5093l-4.37884,5.21848a4.17659,4.17659,0,0,1-4.82372,1.1276q-1.49765-.621-3.05872-1.1131a4.1729,4.1729,0,0,1-2.9663-3.96208V63.7438a4.13169,4.13169,0,0,0-4.13172-4.13166H184.668a4.13169,4.13169,0,0,0-4.13172,4.13166v6.81333a4.17289,4.17289,0,0,1-2.9663,3.962q-1.56006.49115-3.05878,1.11317a4.1764,4.1764,0,0,1-4.82372-1.1276l-4.37884-5.21848a4.13169,4.13169,0,0,0-5.82089-.50924L153.192,74.05984a4.1317,4.1317,0,0,0-.5093,5.82089l4.37859,5.2181a4.17526,4.17526,0,0,1,.2712,4.94828q-.87639,1.37122-1.63407,2.82143a4.17338,4.17338,0,0,1-4.41452,2.228l-6.70358-1.182a4.13168,4.13168,0,0,0-4.7864,3.35147l-1.42717,8.09374a4.1317,4.1317,0,0,0,3.35147,4.7864l6.707,1.18264a4.06544,4.06544,0,0,1,2.23415,1.19966c-.018.02074-.04016.03524-.05787.05636l-5.45368,6.49945a5.00929,5.00929,0,0,1-5.761,1.4261q-2.00147-.83866-4.09535-1.49027a5.00655,5.00655,0,0,1-3.4901-4.79421V105.742a5.04378,5.04378,0,0,0-5.04385-5.04379H116.53018a5.04382,5.04382,0,0,0-5.04385,5.04379v8.48377a5.00649,5.00649,0,0,1-3.49,4.79421q-2.09224.65-4.09541,1.4904a5.00938,5.00938,0,0,1-5.76106-1.4261l-5.45368-6.49952a5.04387,5.04387,0,0,0-7.106-.6217l-7.83458,6.574a5.04387,5.04387,0,0,0-.62164,7.106l5.45311,6.49876a5.00928,5.00928,0,0,1,.40169,5.92516q-1.17936,1.83031-2.18655,3.77574a5.00686,5.00686,0,0,1-5.32413,2.59852l-8.34748-1.47186a5.04377,5.04377,0,0,0-5.84308,4.09132l-1.776,10.072a5.04386,5.04386,0,0,0,4.09138,5.84308l8.351,1.47243a5.00631,5.00631,0,0,1,4.11615,4.27369q.27564,2.18312.752,4.29929a5.00966,5.00966,0,0,1-2.40593,5.42014L67.067,182.67852a5.0439,5.0439,0,0,0-1.84614,6.89005l5.1137,8.85716a5.04381,5.04381,0,0,0,6.89,1.84614l7.35434-4.246a5.0085,5.0085,0,0,1,5.89742.62631q1.60072,1.47713,3.33811,2.80038a5.00832,5.00832,0,0,1,1.64081,5.69916L92.55059,213.132a5.04384,5.04384,0,0,0,3.01459,6.46472l9.61056,3.498a5.04379,5.04379,0,0,0,6.46472-3.01459l2.90288-7.97542a5.04184,5.04184,0,0,1,4.99166-3.30665q1.048.051,2.10882.05182,1.06087,0,2.10895-.05182a5.04189,5.04189,0,0,1,4.99166,3.30665l2.90282,7.97542a5.04384,5.04384,0,0,0,6.46478,3.01459l9.61056-3.498a5.04376,5.04376,0,0,0,3.01452-6.46472l-2.90458-7.98033a5.0083,5.0083,0,0,1,1.64075-5.69916q1.73556-1.32177,3.33811-2.80038a5.0086,5.0086,0,0,1,5.89748-.62631l7.35428,4.246a5.04385,5.04385,0,0,0,6.89005-1.8462l5.11364-8.8571a5.04383,5.04383,0,0,0-1.8462-6.89l-7.33909-4.23725a5.00954,5.00954,0,0,1-2.40587-5.4202q.47479-2.11447.75194-4.29922a5.00644,5.00644,0,0,1,4.11622-4.27369l8.35095-1.47243a5.04381,5.04381,0,0,0,4.09138-5.84308l-1.0986-6.2304.31779-.873a4.176,4.176,0,0,1,4.15517-2.70884q.80376.037,1.61673.03757.813,0,1.61679-.03757a4.176,4.176,0,0,1,4.15517,2.70884l2.33054,6.40294a4.1317,4.1317,0,0,0,5.29564,2.46941l7.72294-2.8109a4.13174,4.13174,0,0,0,2.46941-5.2957l-2.33249-6.40842a4.17366,4.17366,0,0,1,1.431-4.73723q1.29349-.9927,2.49539-2.09332a4.1745,4.1745,0,0,1,4.91431-.58691l5.90549,3.40953a4.13176,4.13176,0,0,0,5.64406-1.51227l4.10928-7.11756a4.13172,4.13172,0,0,0-1.51234-5.644l-5.89225-3.40191a4.17737,4.17737,0,0,1-1.94946-4.55019q.349-1.5819.56188-3.21209a4.17161,4.17161,0,0,1,3.38678-3.61189l6.707-1.18264A4.1317,4.1317,0,0,0,239.18787,105.35972Z" fill="#012819" stroke="#00e09b" stroke-linejoin="round" stroke-width="8"/><circle cx="121.64381" cy="162.89753" r="20.38376" fill="#012819" stroke="#00e09b" stroke-linejoin="round" stroke-width="8"/><circle cx="188.77724" cy="110.07582" r="16.53779" fill="#012819" stroke="#00e09b" stroke-linejoin="round" stroke-width="8"/><path d="M211.62608,180.2a91.74706,91.74706,0,0,1-48.15346,64.22651" fill="#012819" stroke="#f46464" stroke-linecap="round" stroke-linejoin="round" stroke-width="8"/></g></svg>