<svg xmlns="http://www.w3.org/2000/svg" viewBox="0 0 300 300"><title>icon</title><g id="Layer_1" data-name="Layer 1"><rect x="-378.9975" y="-788.46388" width="2691.37533" height="1815.1136" fill="#012819" stroke="#077a48" stroke-linecap="round" stroke-linejoin="round"/></g><g id="icon"><polygon points="108.772 68.003 98.848 68.003 87.972 72.834 90.871 93.634 98.848 90.735 108.772 90.735 116.749 93.634 119.648 72.834 108.772 68.003" fill="#f46464"/><path d="M201.31161,80.665H166.13314a47.2808,47.2808,0,0,0-47.00708,42.236H108.77212a52.31945,52.31945,0,1,0,0,104.6389h58.92521a75.85016,75.85016,0,0,0,75.85012-75.85023V122.901h0A42.23587,42.23587,0,0,0,201.31161,80.665Z" fill="none" stroke="#00e09b" stroke-linecap="round" stroke-linejoin="round" stroke-width="8"/><circle cx="175.1896" cy="112.38162" r="14.74723" fill="#077a48"/><circle cx="145.39358" cy="134.6495" r="11.58064" fill="#077a48"/><circle cx="199.3203" cy="152.70778" r="20.63984" fill="#077a48"/><circle cx="108.59971" cy="175.58775" r="25.22163" fill="#077a48" stroke="#077a48" stroke-linecap="round" stroke-linejoin="round" stroke-width="2"/><path d="M98.60844,103.59835V193.9139a21.178,21.178,0,0,0,10.08349,2.579V103.59835" fill="#00e09b" stroke="#00e09b" stroke-linecap="round" stroke-linejoin="round" stroke-width="2"/><path d="M108.69193,106.41282a13.073,13.073,0,0,0,8.05743-11.74227c0-7.05773,2.89862-21.83615,2.89862-21.83615l-10.87585-4.831h-9.9238l-10.87585,4.831s2.89862,14.77842,2.89862,21.83615a12.77971,12.77971,0,0,0,7.73733,11.74227" fill="none" stroke="#00e09b" stroke-linecap="round" stroke-linejoin="round" stroke-width="8"/></g></svg>