<svg xmlns="http://www.w3.org/2000/svg" viewBox="0 0 300 300"><title>icon</title><g id="Layer_1" data-name="Layer 1"><rect x="-1483.52457" y="-1180.77646" width="2691.37533" height="1815.1136" fill="#012819" stroke="#077a48" stroke-linecap="round" stroke-linejoin="round"/></g><g id="icon"><rect x="171.55796" y="147.70667" width="65.91848" height="18.27054" fill="#00e09b" stroke="#077a48" stroke-linejoin="round" stroke-width="4"/><rect x="61.67678" y="178.07852" width="21.97283" height="46.08955" fill="#012819" stroke="#012819" stroke-linejoin="round" stroke-width="4"/><rect x="83.64961" y="165.97721" width="21.97283" height="58.19086" fill="#012819" stroke="#012819" stroke-linejoin="round" stroke-width="4"/><rect x="105.62243" y="130.80014" width="21.97283" height="93.36794" fill="#012819" stroke="#012819" stroke-linejoin="round" stroke-width="4"/><rect x="127.59526" y="144.49121" width="21.97283" height="79.67686" fill="#012819" stroke="#012819" stroke-linejoin="round" stroke-width="4"/><rect x="149.56809" y="165.97721" width="21.97283" height="58.19086" fill="#012819" stroke="#012819" stroke-linejoin="round" stroke-width="4"/><rect x="171.54091" y="130.80014" width="21.97283" height="93.36794" fill="#012819" stroke="#012819" stroke-linejoin="round" stroke-width="4"/><rect x="193.51374" y="106.64921" width="21.97283" height="117.51886" fill="#012819" stroke="#012819" stroke-linejoin="round" stroke-width="4"/><rect x="215.48656" y="165.97721" width="21.97283" height="58.19086" fill="#012819" stroke="#012819" stroke-linejoin="round" stroke-width="4"/><rect x="171.55796" y="113.97511" width="65.91848" height="16.86578" fill="#00e09b" stroke="#077a48" stroke-linejoin="round" stroke-width="4"/><rect x="171.55796" y="130.84089" width="65.91848" height="16.86578" fill="#00e09b" stroke="#012819" stroke-linejoin="round" stroke-width="4"/><line x1="193.46797" y1="113.97511" x2="193.46797" y2="147.70667" fill="none" stroke="#077a48" stroke-linejoin="round" stroke-width="4"/><rect x="171.55796" y="80.24354" width="65.91848" height="16.86578" fill="#00e09b" stroke="#077a48" stroke-linejoin="round" stroke-width="4"/><rect x="171.55796" y="97.10932" width="65.91848" height="16.86578" fill="#00e09b" stroke="#012819" stroke-linejoin="round" stroke-width="4"/><rect x="171.55796" y="80.24354" width="21.91001" height="16.86578" fill="#f46464" stroke="#012819" stroke-linejoin="round" stroke-width="4"/><rect x="193.46797" y="113.97511" width="44.00847" height="16.86578" fill="#f46464" stroke="#012819" stroke-linejoin="round" stroke-width="4"/><rect x="193.46797" y="97.08895" width="44.00847" height="16.86578" fill="#00e09b" stroke="#012819" stroke-linejoin="round" stroke-width="4"/><rect x="171.55796" y="130.80014" width="21.91001" height="16.90654" fill="#661414" stroke="#012819" stroke-linejoin="round" stroke-width="4"/><polygon points="193.468 80.243 171.558 80.243 171.558 97.109 171.558 113.975 171.558 130.8 171.541 130.8 171.541 165.977 149.568 165.977 149.568 144.491 127.595 144.491 127.595 130.8 105.622 130.8 105.622 165.977 83.65 165.977 83.65 178.078 61.677 178.078 61.677 224.168 83.65 224.168 105.622 224.168 127.595 224.168 149.568 224.168 171.541 224.168 193.514 224.168 215.487 224.168 237.459 224.168 237.459 165.977 237.476 165.977 237.476 147.707 237.476 130.841 237.476 113.975 237.476 113.955 237.476 97.109 237.476 97.089 237.476 80.243 193.468 80.243" fill="none" stroke="#00e09b" stroke-linecap="round" stroke-linejoin="round" stroke-width="8"/></g></svg>