<?xml version="1.0" encoding="utf-8"?>
<!-- Generator: Adobe Illustrator 21.1.0, SVG Export Plug-In . SVG Version: 6.00 Build 0)  -->
<svg version="1.1" id="Layer_1" xmlns="http://www.w3.org/2000/svg" xmlns:xlink="http://www.w3.org/1999/xlink" x="0px" y="0px"
	 viewBox="0 0 173.2 34.7" style="enable-background:new 0 0 173.2 34.7;" xml:space="preserve">
<style type="text/css">
	.st0{fill:#00E09B;}
	.st1{fill:none;}
</style>
<g>
	<rect x="23" y="28" class="st0" width="12.3" height="6.7"/>
	<path class="st0" d="M15.5,0v9.3c-1.6-1.5-3.4-2.1-6.3-2C5,7.4,1.3,10,0.3,14.6C0.1,15.4,0,16.7,0,17.5c0,1,0,1.9,0.2,2.8
		c0.5,3.3,1.7,5.4,3.4,7c1,0.9,2.7,1.9,5,2.1c2.5,0.3,5.3-0.2,6.9-1.4H23V0v0H15.5z M15.3,18.7c0,2.7-1.7,4.3-3.9,4.3
		c-2.6,0-4.1-2.1-4.1-4.5v-0.4c0-2.9,1.7-4.3,4.1-4.2c2.7,0,3.9,2.2,3.9,4.5V18.7z"/>
</g>
<g>
	<path class="st1" d="M47.6,14.3c-1.9,0-3.4,1.4-3.4,3.8v0.3c0,2.4,1.2,4,3.4,4c1.9,0,3.3-1.5,3.3-3.9v-0.3
		C50.9,16.3,49.4,14.3,47.6,14.3z"/>
	<path class="st1" d="M84,14.1c-1.9,0-3.3,1.6-3.3,4.1v0.3c0,2.5,1.4,4.1,3.3,4.1c1.9,0,3.3-1.6,3.3-4.1v-0.3
		C87.2,15.7,85.8,14.1,84,14.1z"/>
	<path class="st1" d="M151.1,21.1L151.1,21.1c0,1.3,0.9,1.9,2.2,1.9c1.7,0,3-0.9,3-2.2v-1.2c-0.7-0.3-1.6-0.5-2.5-0.5
		C152.1,19.1,151.1,19.8,151.1,21.1z"/>
	<path class="st1" d="M65.9,13.9c-1.6,0-2.7,1.2-3,3.3h5.8C68.6,15.1,67.6,13.9,65.9,13.9z"/>
	<path class="st1" d="M102.2,14c-2.2,0-3.5,1.8-3.5,4.1v0.2c0,2.3,1.4,4.2,3.6,4.2c2.2,0,3.5-1.8,3.5-4.1v-0.2
		C105.7,15.8,104.3,14,102.2,14z"/>
	<path d="M65.9,10.7c-4.2,0-7.5,3.2-7.5,7.5v0.2c0,4.5,3.6,7.5,8.1,7.5c2.5,0,4.5-0.9,6-2.3l-2.3-2.3c-1.1,0.9-2.1,1.4-3.5,1.4
		c-1.9,0-3.3-1-3.6-2.9h10.1c0-0.6,0-1,0-1.3C73.1,14.1,70.7,10.7,65.9,10.7z M63,17.2c0.3-2.1,1.3-3.3,3-3.3c1.7,0,2.7,1.3,2.9,3.3
		H63z"/>
	<path d="M85.3,10.7c-2.2,0-3.6,1.1-4.6,2.3v-2h-4.5v20h4.5v-7.3c0.9,1.1,2.3,2.2,4.6,2.2c3.4,0,6.4-2.4,6.4-7.4V18
		C91.7,13.1,88.6,10.7,85.3,10.7z M87.2,18.4c0,2.5-1.4,4.1-3.3,4.1c-1.9,0-3.3-1.6-3.3-4.1v-0.3c0-2.5,1.4-4.1,3.3-4.1
		c1.9,0,3.3,1.6,3.3,4.1V18.4z"/>
	<path d="M102.2,10.7c-4.6,0-8,3.1-8,7.5v0.3c0,4.4,3.4,7.4,7.9,7.4c4.6,0,7.9-3.1,7.9-7.5v-0.3C110.1,13.8,106.8,10.7,102.2,10.7z
		 M105.7,18.4c0,2.4-1.3,4.1-3.5,4.1c-2.1,0-3.6-1.8-3.6-4.2v-0.2c0-2.4,1.3-4.1,3.5-4.1c2.1,0,3.5,1.8,3.5,4.2V18.4z"/>
	<path d="M119.9,16.9c-1.8-0.7-3-1.1-3-1.9v-0.1c0-0.6,0.6-1,1.6-1c1.2,0,2.6,0.5,3.8,1.3l1.8-2.8c-1.7-1-3.7-1.6-5.6-1.6
		c-3.3,0-5.8,1.7-5.8,4.5v0.1c0,2.5,2,3.5,4.4,4.4c1.8,0.7,3.1,1,3.1,1.9v0.1c0,0.6-0.5,1.1-1.8,1.1c-1.4,0-3-0.6-4.5-1.6l-1.9,2.7
		c2,1.4,4.4,2,6.4,2c3.4,0,5.9-1.5,5.9-4.5v-0.1C124.4,18.9,122.3,17.9,119.9,16.9z"/>
	<rect x="127.4" y="5.9" width="4.7" height="3.5"/>
	<rect x="127.5" y="11" width="4.5" height="14.6"/>
	<path d="M141.1,7.2h-4.5V11H135v3.3h1.7v7.7c0,3,1.9,3.9,4.5,3.9c1.4,0,2.4-0.3,3.3-0.8V22c-0.6,0.2-1.2,0.4-1.9,0.4
		c-0.9,0-1.4-0.4-1.4-1.3v-6.9h3.3V11h-3.3V7.2z"/>
	<path d="M153.6,10.8c-2.4,0-4.1,0.5-5.8,1.2l1.2,3c1-0.4,2.3-0.8,3.9-0.8c2,0,3.2,0.9,3.2,2.6v0.4c-1-0.4-2.1-0.6-3.5-0.6
		c-3.5,0-5.9,1.4-5.9,4.7v0.2c0,2.8,2.2,4.4,5,4.4c2,0,3.4-0.7,4.4-1.9v1.6h4.4v-8.9c0-1.9-0.6-3.4-1.7-4.4
		C157.7,11.3,155.9,10.8,153.6,10.8z M156.2,20.8c0,1.3-1.3,2.3-3,2.2c-1.3,0-2.2-0.6-2.2-1.8v-0.1c0-1.3,1-2,2.7-2
		c0.9,0,1.8,0.2,2.5,0.5V20.8z"/>
	<path d="M168.6,13.6V11h-4.5v14.6h4.5v-9.2c0-1.1,1.6-1.1,4.4-1.1h0.2v-4.5C170.8,10.6,169.5,11.8,168.6,13.6z"/>
	<path d="M50.8,12.8c-1-1.3-2.3-2.5-4.6-2.5c-3.4,0-6.5,2.8-6.5,7.3c0,3.5,1.1,5.5,2.6,6.9c0.7,0.7,1.9,1.5,3.6,1.5
		c2.5,0,4.1-1,4.9-2v1.5h4.5c0,0,0-10.5,0-20.5h-4.5C50.8,11.1,50.8,12.8,50.8,12.8z M50.9,18.4c0,2.4-1.5,3.9-3.3,3.9
		c-2.2,0-3.4-1.6-3.4-4v-0.3c0-2.4,1.5-3.8,3.4-3.8c1.9,0,3.3,2,3.3,3.9V18.4z"/>
</g>
</svg>
