<?xml version="1.0" encoding="UTF-8"?>
<svg xmlns="http://www.w3.org/2000/svg" xmlns:xl="http://www.w3.org/1999/xlink" version="1.1" viewBox="0 0 16 16" x="0px" y="0px" style="enable-background:new 0 0 16 16;" xml:space="preserve">
  <title>logo</title>
  <g>
    <rect x="10.435255" y="12.837921" width="5.5647447" height="3.0287433" fill="black"/>
    <path d="M 6.9209415 8.615783 C 6.9209415 9.844167 6.156382 10.580967 5.139668 10.580967 C 3.955815 10.580967 3.302296 9.611098 3.302296 8.529032 L 3.302296 8.344543 C 3.302296 7.015528 4.0766873 6.419264 5.139668 6.425626 C 6.375571 6.432566 6.9209415 7.416893 6.9209415 8.481031 Z M 7.0140536 .13333526 L 7.0140536 4.3546064 C 6.306749 3.697039 5.453126 3.418281 4.1732693 3.4425713 C 2.285582 3.478428 .5985773 4.681366 .13301718 6.7298305 C .04568851 7.113267 0 7.700856 0 8.055376 C 0 8.510526 .019663409 8.928662 .07229194 9.309785 C .2781794 10.797843 .8553583 11.766555 1.6326413 12.479643 C 2.0901047 12.899514 2.8754844 13.325747 3.910705 13.450668 C 5.0349893 13.587734 6.3246776 13.355821 7.0140536 12.837632 L 10.435487 12.837632 L 10.435487 .151842 L 10.435487 .13333526 Z" fill="black"/>
  </g>
</svg>